<svg xmlns="http://www.w3.org/2000/svg" xmlns:xlink="http://www.w3.org/1999/xlink" version="1.1" width="256" height="256" viewBox="0 0 256 256" xml:space="preserve">

<defs>
</defs>
<g style="stroke: none; stroke-width: 0; stroke-dasharray: none; stroke-linecap: butt; stroke-linejoin: miter; stroke-miterlimit: 10; fill: none; fill-rule: nonzero; opacity: 1;" transform="translate(1.4065934065934016 1.4065934065934016) scale(2.81 2.81)" >
	<path d="M 65.907 23.204 l -9.243 7.591 v -7.591 c -2.571 0 -4.655 -2.084 -4.655 -4.655 V 4.655 C 52.01 2.084 54.094 0 56.665 0 h 21.369 c 2.571 0 4.655 2.084 4.655 4.655 v 13.894 c 0 2.571 -2.084 4.655 -4.655 4.655 H 65.907 L 65.907 23.204 z" style="stroke: none; stroke-width: 1; stroke-dasharray: none; stroke-linecap: butt; stroke-linejoin: miter; stroke-miterlimit: 10; fill: rgb(239,83,80); fill-rule: nonzero; opacity: 1;" transform=" matrix(1 0 0 1 0 0) " stroke-linecap="round" />
	<path d="M 49.965 66.917 V 36.396 v -4.867 c 0 -9.601 -7.783 -17.384 -17.384 -17.384 h 0 c -9.601 0 -17.384 7.783 -17.384 17.384 v 4.867 v 30.521 H 49.965 z" style="stroke: none; stroke-width: 1; stroke-dasharray: none; stroke-linecap: butt; stroke-linejoin: miter; stroke-miterlimit: 10; fill: rgb(243,170,0); fill-rule: nonzero; opacity: 1;" transform=" matrix(1 0 0 1 0 0) " stroke-linecap="round" />
	<path d="M 44.825 63.126 c -2.64 -0.483 -4.559 -2.783 -4.559 -5.467 v -1.45 h -15.37 v 1.45 c 0 2.684 -1.918 4.985 -4.559 5.467 l -13.026 9.61 v 14.993 C 7.312 88.983 8.329 90 9.584 90 h 7.814 l 15.184 -3.847 L 47.765 90 h 7.814 c 1.255 0 2.272 -1.017 2.272 -2.272 V 72.735 L 44.825 63.126 z" style="stroke: none; stroke-width: 1; stroke-dasharray: none; stroke-linecap: butt; stroke-linejoin: miter; stroke-miterlimit: 10; fill: rgb(242,194,178); fill-rule: nonzero; opacity: 1;" transform=" matrix(1 0 0 1 0 0) " stroke-linecap="round" />
	<path d="M 19.102 47.536 h -4.593 c -0.99 0 -1.792 -0.802 -1.792 -1.792 v -7.555 c 0 -0.99 0.802 -1.792 1.792 -1.792 h 3.299 C 20.651 39.962 20.897 43.687 19.102 47.536 z" style="stroke: none; stroke-width: 1; stroke-dasharray: none; stroke-linecap: butt; stroke-linejoin: miter; stroke-miterlimit: 10; fill: rgb(38,111,183); fill-rule: nonzero; opacity: 1;" transform=" matrix(1 0 0 1 0 0) " stroke-linecap="round" />
	<path d="M 47.354 36.396 h 3.299 c 0.99 0 1.792 0.802 1.792 1.792 v 7.555 c 0 0.99 -0.802 1.792 -1.792 1.792 h -4.596 C 43.692 43.597 44.672 39.928 47.354 36.396 z" style="stroke: none; stroke-width: 1; stroke-dasharray: none; stroke-linecap: butt; stroke-linejoin: miter; stroke-miterlimit: 10; fill: rgb(38,111,183); fill-rule: nonzero; opacity: 1;" transform=" matrix(1 0 0 1 0 0) " stroke-linecap="round" />
	<path d="M 47.445 35.303 l -0.73 8.722 c -0.172 2.059 -0.698 4.031 -1.524 5.848 c -0.447 0.982 -0.981 1.918 -1.594 2.798 c -0.614 0.88 -1.307 1.703 -2.07 2.459 c -1.79 1.771 -3.97 3.172 -6.431 4.062 l 0 0 c -1.625 0.587 -3.405 0.587 -5.03 0 l 0 0 c -6.504 -2.35 -11.043 -8.275 -11.62 -15.167 l -0.782 -9.353 c 9.512 -1.279 16.14 -3.325 19.946 -7.189 C 40.552 30.973 43.149 33.001 47.445 35.303 z" style="stroke: none; stroke-width: 1; stroke-dasharray: none; stroke-linecap: butt; stroke-linejoin: miter; stroke-miterlimit: 10; fill: rgb(250,206,191); fill-rule: nonzero; opacity: 1;" transform=" matrix(1 0 0 1 0 0) " stroke-linecap="round" />
	<path d="M 22.669 38.947 c 0.382 -0.572 0.916 -0.961 1.505 -1.244 c 0.592 -0.274 1.251 -0.418 1.912 -0.419 c 0.661 -0.001 1.32 0.142 1.913 0.416 c 0.589 0.282 1.123 0.672 1.504 1.246 c -0.685 0.064 -1.264 0.041 -1.821 0.041 l -1.596 -0.018 l -1.596 0.016 C 23.931 38.985 23.352 39.009 22.669 38.947 z" style="stroke: none; stroke-width: 1; stroke-dasharray: none; stroke-linecap: butt; stroke-linejoin: miter; stroke-miterlimit: 10; fill: rgb(220,102,65); fill-rule: nonzero; opacity: 1;" transform=" matrix(1 0 0 1 0 0) " stroke-linecap="round" />
	<path d="M 35.659 38.947 c 0.382 -0.572 0.916 -0.961 1.505 -1.244 c 0.592 -0.274 1.251 -0.418 1.912 -0.419 c 0.661 -0.001 1.32 0.142 1.913 0.416 c 0.589 0.282 1.123 0.672 1.504 1.246 c -0.685 0.064 -1.264 0.041 -1.821 0.041 l -1.596 -0.018 l -1.596 0.016 C 36.922 38.985 36.343 39.009 35.659 38.947 z" style="stroke: none; stroke-width: 1; stroke-dasharray: none; stroke-linecap: butt; stroke-linejoin: miter; stroke-miterlimit: 10; fill: rgb(220,102,65); fill-rule: nonzero; opacity: 1;" transform=" matrix(1 0 0 1 0 0) " stroke-linecap="round" />
	<path d="M 27.524 49.01 c 0.936 0.413 1.769 0.843 2.608 1.136 c 0.833 0.302 1.642 0.473 2.446 0.477 c 0.804 -0.008 1.614 -0.182 2.447 -0.484 c 0.839 -0.294 1.674 -0.721 2.613 -1.129 c -0.45 0.917 -1.134 1.694 -1.994 2.302 c -0.858 0.599 -1.94 0.994 -3.063 0.996 c -1.123 -0.002 -2.207 -0.394 -3.065 -0.994 C 28.656 50.706 27.973 49.927 27.524 49.01 z" style="stroke: none; stroke-width: 1; stroke-dasharray: none; stroke-linecap: butt; stroke-linejoin: miter; stroke-miterlimit: 10; fill: rgb(220,102,65); fill-rule: nonzero; opacity: 1;" transform=" matrix(1 0 0 1 0 0) " stroke-linecap="round" />
	<path d="M 41.711 54.908 h -5.504 c -0.466 0 -0.843 -0.377 -0.843 -0.843 c 0 -0.466 0.377 -0.843 0.843 -0.843 h 5.504 c 3.136 0 5.687 -2.551 5.687 -5.686 c 0 -0.465 0.377 -0.843 0.843 -0.843 s 0.843 0.377 0.843 0.843 C 49.084 51.601 45.777 54.908 41.711 54.908 z" style="stroke: none; stroke-width: 1; stroke-dasharray: none; stroke-linecap: butt; stroke-linejoin: miter; stroke-miterlimit: 10; fill: rgb(38,111,183); fill-rule: nonzero; opacity: 1;" transform=" matrix(1 0 0 1 0 0) " stroke-linecap="round" />
	<path d="M 17.397 90 h 15.184 c 0 0 15.184 0 15.184 0 v -5.153 c 0 -1.925 0.816 -3.759 2.246 -5.048 l 7.839 -7.064 c 0 0 0 -0.922 0 -0.922 c 0 -3.653 -2.611 -6.784 -6.204 -7.441 c 0 0 -6.822 -1.247 -6.822 -1.247 c -2.537 7.444 -6.706 13.1 -12.244 17.257 c -5.538 -4.157 -9.707 -9.813 -12.244 -17.257 c 0 0 -6.822 1.247 -6.822 1.247 c -3.593 0.657 -6.204 3.788 -6.204 7.441 c 0 0 0 0.922 0 0.922 l 7.839 7.064 c 1.43 1.289 2.246 3.123 2.246 5.048 C 17.397 84.847 17.397 90 17.397 90 z" style="stroke: none; stroke-width: 1; stroke-dasharray: none; stroke-linecap: butt; stroke-linejoin: miter; stroke-miterlimit: 10; fill: rgb(38,111,183); fill-rule: nonzero; opacity: 1;" transform=" matrix(1 0 0 1 0 0) " stroke-linecap="round" />
	<path d="M 71.977 16.13 h -2.921 c -0.553 0 -1 -0.448 -1 -1 v -3.21 c 0 -0.552 0.447 -1 1 -1 h 1.921 V 9.442 h -1.921 c -0.553 0 -1 -0.448 -1 -1 s 0.447 -1 1 -1 h 2.921 c 0.553 0 1 0.448 1 1 v 3.478 c 0 0.552 -0.447 1 -1 1 h -1.921 v 1.21 h 1.921 c 0.553 0 1 0.448 1 1 S 72.529 16.13 71.977 16.13 z" style="stroke: none; stroke-width: 1; stroke-dasharray: none; stroke-linecap: butt; stroke-linejoin: miter; stroke-miterlimit: 10; fill: rgb(255,255,255); fill-rule: nonzero; opacity: 1;" transform=" matrix(1 0 0 1 0 0) " stroke-linecap="round" />
	<path d="M 78.56 16.13 c -0.553 0 -1 -0.448 -1 -1 v -0.375 h -2.313 c -0.318 0 -0.617 -0.151 -0.806 -0.408 s -0.244 -0.587 -0.148 -0.891 l 1.757 -5.625 c 0.163 -0.527 0.726 -0.821 1.252 -0.656 c 0.527 0.165 0.821 0.726 0.656 1.253 l -1.351 4.327 h 0.952 v -0.563 c 0 -0.552 0.447 -1 1 -1 s 1 0.448 1 1 v 2.938 C 79.56 15.682 79.112 16.13 78.56 16.13 z" style="stroke: none; stroke-width: 1; stroke-dasharray: none; stroke-linecap: butt; stroke-linejoin: miter; stroke-miterlimit: 10; fill: rgb(255,255,255); fill-rule: nonzero; opacity: 1;" transform=" matrix(1 0 0 1 0 0) " stroke-linecap="round" />
	<path d="M 59.801 10.822 l 0.761 -2.028 c 0.115 -0.307 0.072 -0.651 -0.114 -0.921 c -0.188 -0.27 -0.494 -0.431 -0.822 -0.431 h -3.563 c -0.553 0 -1 0.448 -1 1 s 0.447 1 1 1 h 2.119 l -0.505 1.344 h -0.563 c -0.553 0 -1 0.448 -1 1 c 0 0.49 0.359 0.879 0.825 0.965 l -0.761 2.028 c -0.193 0.517 0.068 1.094 0.585 1.288 c 0.116 0.043 0.234 0.064 0.352 0.064 c 0.404 0 0.785 -0.248 0.937 -0.649 l 1.012 -2.695 h 0.562 c 0.553 0 1 -0.448 1 -1 C 60.626 11.296 60.267 10.907 59.801 10.822 z" style="stroke: none; stroke-width: 1; stroke-dasharray: none; stroke-linecap: butt; stroke-linejoin: miter; stroke-miterlimit: 10; fill: rgb(255,255,255); fill-rule: nonzero; opacity: 1;" transform=" matrix(1 0 0 1 0 0) " stroke-linecap="round" />
	<path d="M 62.511 16.398 c -0.123 0 -0.247 -0.023 -0.368 -0.07 c -0.513 -0.203 -0.765 -0.784 -0.562 -1.298 l 2.75 -6.955 c 0.203 -0.514 0.784 -0.764 1.298 -0.563 c 0.513 0.203 0.765 0.784 0.562 1.298 l -2.75 6.955 C 63.285 16.158 62.909 16.398 62.511 16.398 z" style="stroke: none; stroke-width: 1; stroke-dasharray: none; stroke-linecap: butt; stroke-linejoin: miter; stroke-miterlimit: 10; fill: rgb(255,255,255); fill-rule: nonzero; opacity: 1;" transform=" matrix(1 0 0 1 0 0) " stroke-linecap="round" />
</g>
</svg>