<?xml version="1.0" encoding="iso-8859-1"?>
<!-- Uploaded to: SVG Repo, www.svgrepo.com, Generator: SVG Repo Mixer Tools -->
<svg height="800px" width="800px" version="1.1" id="Layer_1" xmlns="http://www.w3.org/2000/svg" xmlns:xlink="http://www.w3.org/1999/xlink" 
	 viewBox="0 0 512 512" xml:space="preserve">
<g transform="translate(1 1)">
	<path style="fill:#FFFFFF;" d="M192.707,496.493L17.773,321.56c-8.533-8.533-8.533-22.187,0-30.72L265.24,41.667h198.827v207.36
		l-240.64,247.467C214.893,504.173,201.24,504.173,192.707,496.493L192.707,496.493z"/>
	<g>
		<path style="fill:#0096E6;" d="M208.067,511c-7.68,0-15.36-3.413-21.333-8.533L11.8,327.533
			C5.827,321.56,3.267,313.88,3.267,306.2s3.413-15.36,8.533-21.333L261.827,33.133H472.6V252.44L229.4,502.467
			C223.427,507.587,215.747,511,208.067,511z M268.653,50.2L24.6,296.813c-2.56,2.56-4.267,5.973-4.267,9.387
			c0,3.413,1.707,6.827,3.413,9.387L198.68,490.52c5.12,5.12,13.653,5.12,18.773,0l238.08-244.907V50.2H268.653z"/>
		<path style="fill:#0096E6;" d="M208.92,425.667c-2.56,0-4.267-0.853-5.973-2.56l-5.973-5.973
			c-16.213,11.093-39.253,9.387-53.76-5.12c-3.413-3.413-3.413-8.533,0-11.947c3.413-3.413,8.533-3.413,11.947,0
			c7.68,7.68,19.627,9.387,29.013,5.12l-33.28-33.28L127,375.32c-8.533,0.853-17.067-1.707-23.04-6.827s-10.24-12.8-11.093-20.48
			c-0.853-9.387,1.707-18.773,6.827-27.307l-6.827-6.827c-3.413-3.413-3.413-8.533,0-11.947c3.413-3.413,8.533-3.413,11.947,0
			l6.827,6.827c16.213-11.093,39.253-9.387,53.76,5.12c3.413,3.413,3.413,8.533,0,11.947c-3.413,3.413-8.533,3.413-11.947,0
			c-7.68-7.68-19.627-9.387-29.013-5.12l33.28,33.28l23.893-3.413c8.533-0.853,17.067,1.707,23.04,6.827
			c5.973,5.12,10.24,12.8,11.093,20.48c0.853,9.387-1.707,18.773-6.827,27.307l5.12,5.12c3.413,3.413,3.413,8.533,0,11.947
			C213.187,424.813,210.627,425.667,208.92,425.667z M173.08,369.347l23.893,23.893c1.707-4.267,2.56-8.533,2.56-12.8
			c0-3.413-1.707-6.827-4.267-8.533c-2.56-2.56-6.827-3.413-10.24-3.413L173.08,369.347z M113.347,333.507
			c-1.707,4.267-2.56,8.533-2.56,12.8c0,3.413,1.707,6.827,4.267,8.533c2.56,2.56,6.827,3.413,10.24,3.413l11.093-1.707
			L113.347,333.507z M274.627,371.053c-2.56,0-4.267-0.853-5.973-2.56c-3.413-3.413-3.413-8.533,0-11.947l90.453-90.453
			c3.413-3.413,8.533-3.413,11.947,0c3.413,3.413,3.413,8.533,0,11.947l-89.6,90.453C279.747,370.2,277.187,371.053,274.627,371.053
			z M232.813,328.387c-2.56,0-4.267-0.853-5.973-2.56c-3.413-3.413-3.413-8.533,0-11.947l11.947-11.947
			c3.413-3.413,8.533-3.413,11.947,0c3.413,3.413,3.413,8.533,0,11.947l-11.947,11.947
			C237.08,327.533,235.373,328.387,232.813,328.387z M293.4,268.653c-2.56,0-4.267-0.853-5.973-2.56
			c-3.413-3.413-3.413-8.533,0-11.947l60.587-60.587c3.413-3.413,8.533-3.413,11.947,0c3.413,3.413,3.413,8.533,0,11.947
			l-60.587,60.587C297.667,267.8,295.107,268.653,293.4,268.653z M220.867,256.707c-2.56,0-4.267-0.853-5.973-2.56
			c-3.413-3.413-3.413-8.533,0-11.947l90.453-90.453c3.413-3.413,8.533-3.413,11.947,0c3.413,3.413,3.413,8.533,0,11.947
			l-90.453,90.453C225.133,255.853,222.573,256.707,220.867,256.707z M148.333,243.907c-2.56,0-4.267-0.853-5.973-2.56
			c-3.413-3.413-3.413-8.533,0-11.947l90.453-90.453c3.413-3.413,8.533-3.413,11.947,0s3.413,8.533,0,11.947L154.307,242.2
			C152.6,243.053,150.893,243.907,148.333,243.907z"/>
	</g>
	<path style="fill:#D0E8F9;" d="M412.867,127c0,18.773-15.36,34.133-34.133,34.133S344.6,145.773,344.6,127
		s15.36-34.133,34.133-34.133S412.867,108.227,412.867,127L412.867,127z"/>
	<g>
		<path style="fill:#0096E6;" d="M378.733,169.667c-23.893,0-42.667-18.773-42.667-42.667s18.773-42.667,42.667-42.667
			c23.893,0,42.667,18.773,42.667,42.667S402.627,169.667,378.733,169.667z M378.733,101.4c-14.507,0-25.6,11.093-25.6,25.6
			s11.093,25.6,25.6,25.6c14.507,0,25.6-11.093,25.6-25.6S393.24,101.4,378.733,101.4z"/>
		<path style="fill:#0096E6;" d="M378.733,135.533c-2.56,0-4.267-0.853-5.973-2.56c-3.413-3.413-3.413-8.533,0-11.947L492.227,1.56
			c3.413-3.413,8.533-3.413,11.947,0c3.413,3.413,3.413,8.533,0,11.947L384.707,132.973C383,134.68,381.293,135.533,378.733,135.533
			z"/>
	</g>
</g>
</svg>