<?xml version="1.0" encoding="iso-8859-1"?>
<!-- Uploaded to: SVG Repo, www.svgrepo.com, Generator: SVG Repo Mixer Tools -->
<!DOCTYPE svg PUBLIC "-//W3C//DTD SVG 1.1//EN" "http://www.w3.org/Graphics/SVG/1.1/DTD/svg11.dtd">
<svg fill="#000000" height="800px" width="800px" version="1.1" id="Capa_1" xmlns="http://www.w3.org/2000/svg" xmlns:xlink="http://www.w3.org/1999/xlink" 
	 viewBox="0 0 296.667 296.667" xml:space="preserve">
<g>
	<path d="M178.957,219.245c-2.929-2.93-2.929-7.678,0-10.607l11.1-11.099l-11.1-11.099c-1.406-1.407-2.196-3.314-2.196-5.304
		c0-1.989,0.79-3.897,2.197-5.304l11.099-11.097l-11.1-11.099c-2.929-2.93-2.929-7.678,0-10.607l11.1-11.099l-11.1-11.099
		c-2.929-2.93-2.929-7.678,0-10.607l11.101-11.1l-11.1-11.099c-1.406-1.407-2.196-3.314-2.196-5.304c0-1.989,0.79-3.896,2.197-5.304
		l11.087-11.086H15.969C7.149,66.334,0,73.483,0,82.302v132.063c0,8.819,7.149,15.969,15.969,15.969h174.078L178.957,219.245z
		 M77.05,203.952c-6.556,0-11.871-5.314-11.871-11.871c0-6.558,5.315-11.872,11.871-11.872c6.558,0,11.872,5.314,11.872,11.872
		C88.922,198.637,83.607,203.952,77.05,203.952z M113.114,203.952c-6.557,0-11.871-5.314-11.871-11.871
		c0-6.558,5.314-11.872,11.871-11.872c6.557,0,11.871,5.314,11.871,11.872C124.985,198.637,119.671,203.952,113.114,203.952z
		 M144.628,116.506l-10.322,46.792c-1.19,5.396-5.971,9.237-11.497,9.237H67.354c-5.524,0-10.307-3.842-11.495-9.237l-12.39-56.159
		H32.09c-3.983,0-7.213-3.229-7.213-7.213s3.229-7.212,7.213-7.212h25.532c3.353,0,6.263,2.309,7.025,5.573l2.064,8.852h70.39
		c2.336,0,4.546,1.059,6.009,2.881C144.573,111.84,145.131,114.226,144.628,116.506z"/>
	<path d="M280.698,66.334h-72.535c-0.003,1.985-0.792,3.888-2.196,5.292l-11.099,11.098l11.1,11.099
		c2.929,2.93,2.929,7.678,0,10.607l-11.101,11.1l11.1,11.099c2.929,2.93,2.929,7.678,0,10.607l-11.1,11.099l11.1,11.099
		c1.406,1.407,2.196,3.314,2.196,5.304c0,1.989-0.79,3.898-2.197,5.304l-11.099,11.097l11.1,11.099c2.929,2.93,2.929,7.678,0,10.607
		l-11.1,11.099l11.101,11.1c1.462,1.462,2.193,3.377,2.196,5.293h72.534c8.819,0,15.969-7.149,15.969-15.969V82.302
		C296.667,73.483,289.518,66.334,280.698,66.334z M212.932,131.432c0-7.47,6.056-13.525,13.525-13.525s13.524,6.056,13.524,13.525
		s-6.055,13.524-13.524,13.524S212.932,138.902,212.932,131.432z M231.605,183.736c-0.763,0-1.536-0.175-2.262-0.544
		c-2.462-1.252-3.443-4.262-2.191-6.723l30.914-60.804c1.252-2.463,4.264-3.443,6.723-2.191c2.462,1.252,3.443,4.262,2.191,6.723
		l-30.914,60.804C235.184,182.737,233.428,183.736,231.605,183.736z M267.676,178.759c-7.47,0-13.524-6.056-13.524-13.525
		s6.055-13.524,13.524-13.524c7.47,0,13.525,6.055,13.525,13.524S275.146,178.759,267.676,178.759z"/>
</g>
</svg>